<?xml version="1.0" encoding="utf-8"?>
<!-- Generator: Adobe Illustrator 27.5.0, SVG Export Plug-In . SVG Version: 6.00 Build 0)  -->
<svg version="1.1" xmlns="http://www.w3.org/2000/svg" xmlns:xlink="http://www.w3.org/1999/xlink" x="0px" y="0px"
	 viewBox="0 0 500 500" style="enable-background:new 0 0 500 500;" xml:space="preserve">
<g id="BACKGROUND">
	<rect style="fill:#FFFFFF;" width="500" height="500"/>
</g>
<g id="OBJECTS">
	<g>
		<ellipse style="fill:#E3E8E7;" cx="248.151" cy="261.839" rx="31.256" ry="7.467"/>
		<g>
			<g>
				<path style="fill:#30325E;" d="M289.149,159.473c6.387,0,11.584,5.196,11.584,11.584v49.216c0,6.387-5.196,11.584-11.584,11.584
					h-27.26h-5.91l-3.578,4.704l-4.249,5.586l-4.249-5.586l-3.578-4.704h-5.91h-27.26c-6.387,0-11.584-5.197-11.584-11.584v-49.216
					c0-6.387,5.196-11.584,11.584-11.584H289.149 M289.149,147.552h-81.995c-12.981,0-23.505,10.523-23.505,23.505v49.216
					c0,12.981,10.523,23.505,23.505,23.505h27.26l13.737,18.061l13.737-18.061h27.26c12.981,0,23.505-10.523,23.505-23.505v-49.216
					C312.654,158.076,302.13,147.552,289.149,147.552L289.149,147.552z"/>
			</g>
			<g>
				<g>
					<path style="fill:#FF4653;" d="M263.57,191.891c-3.238,0-6.477-1.066-9.119-3.197l-3.314-2.674
						c-1.732-1.398-4.245-1.395-5.973-0.001l-3.315,2.675c-5.284,4.263-12.954,4.263-18.238,0l-3.314-2.675
						c-1.73-1.396-4.242-1.397-5.973,0.001c-2.099,1.693-5.174,1.364-6.867-0.734c-1.693-2.099-1.364-5.173,0.734-6.867
						c5.285-4.263,12.954-4.263,18.238,0l3.314,2.675c1.73,1.396,4.242,1.397,5.973-0.001l3.314-2.674
						c5.284-4.261,12.954-4.264,18.238,0l3.314,2.674c1.732,1.398,4.244,1.397,5.974,0l3.314-2.674
						c5.284-4.261,12.955-4.264,18.238,0c2.099,1.693,2.427,4.768,0.734,6.867c-1.692,2.098-4.766,2.428-6.867,0.734
						c-1.73-1.396-4.242-1.398-5.974,0l-3.314,2.674C270.048,190.825,266.809,191.891,263.57,191.891z"/>
				</g>
				<g>
					<path style="fill:#00C3AD;" d="M263.57,216.564c-3.238,0-6.477-1.066-9.119-3.197l-3.314-2.674
						c-1.732-1.398-4.245-1.395-5.973-0.001l-3.315,2.674c-5.284,4.263-12.954,4.263-18.238,0l-3.314-2.674
						c-1.73-1.396-4.242-1.397-5.973,0.001c-2.099,1.693-5.174,1.363-6.867-0.734c-1.693-2.099-1.364-5.173,0.734-6.867
						c5.285-4.263,12.954-4.263,18.238,0l3.314,2.675c1.73,1.396,4.242,1.397,5.973-0.001l3.314-2.674
						c5.284-4.262,12.954-4.263,18.238,0l3.314,2.674c1.732,1.398,4.244,1.397,5.974,0l3.314-2.674
						c5.284-4.262,12.955-4.263,18.238,0c2.099,1.693,2.427,4.768,0.734,6.867c-1.692,2.098-4.766,2.427-6.867,0.734
						c-1.73-1.397-4.242-1.398-5.974,0l-3.314,2.674C270.048,215.498,266.809,216.564,263.57,216.564z"/>
				</g>
			</g>
		</g>
	</g>
</g>
<g id="TEXTS">
	<g>
		
			<text transform="matrix(1 0 0 1 152.93 328.0057)" style="fill:#30325E; font-family:'RubikRoman-Bold'; font-size:38px; letter-spacing:3;">CHITCHAT</text>
		
			<text transform="matrix(1 0 0 1 175.4552 347.2215)" style="fill:#FF7859; font-family:'Rubik-Light'; font-size:16px; letter-spacing:1;">Your Tagline Here</text>
	</g>
</g>
</svg>
